<svg id="Layer_1" data-name="Layer 1" xmlns="http://www.w3.org/2000/svg" xmlns:xlink="http://www.w3.org/1999/xlink" viewBox="0 0 113.39 106.15"><defs><clipPath id="clip-path" transform="translate(-627.53 -330.71)"><circle cx="684.99" cy="387.94" r="46.06" fill="none"/></clipPath></defs><title>do-your-job-logo</title><circle cx="57.66" cy="57.17" r="47.48" fill="#0d4668" stroke="#ffbd24" stroke-miterlimit="10" stroke-width="3"/><g clip-path="url(#clip-path)"><path d="M740.06,417.52v-1.17h.35v-.48H726c.42,0,.44-.64.44-.64v-1.47a1.17,1.17,0,0,0-1.18-1.17h-4.39a1.15,1.15,0,0,0-1.16,1.23v1.41a1.13,1.13,0,0,0,.26.64h-7.08l.94-1.65a.78.78,0,0,0,.39-.88h-1.29v-1.63h.4v-.48H703.06v-7.87c2.27-2.71-2.86-5.38-2.86-5.38V394.8c1.95-1.59-.84-3.5-.84-3.5.48-1.55-1.55-2.5-1.55-2.5.48-7.88-8.11-11.36-8.11-11.36v-.82l-1.28-.71v-1l-.71-.63v-3.66l.37-.27c1.06-2.15-1.94-3.39-1.94-3.39l.16-1.2.44-.42v-.45l-.6-.24-.1-1.41c1.83-1.67-.49-3.45-.49-3.45s-2.32,1.78-.49,3.45l-.11,1.41-.6.24v.45l.44.42L685,367s-3,1.24-1.94,3.39l.38.27v3.66l-.72.63v1l-1.27.71v.82s-8.6,3.48-8.12,11.36c0,0-2,.95-1.55,2.5,0,0-2.79,1.91-.84,3.5V398s-5.13,2.67-2.86,5.38v7.87H657.81v.48h.39v1.63h-1.29a.78.78,0,0,0,.4.88l.93,1.65h-7.08a1.13,1.13,0,0,0,.26-.64v-1.41a1.15,1.15,0,0,0-1.15-1.23h-4.4a1.16,1.16,0,0,0-1.17,1.17v1.47s0,.64.43.64H630.69v.48H631v1.17h-.85v1s.67,0,.67.4v15.8H740.24v-15.8c0-.44.68-.4.68-.4v-1Zm-97.5-1.1h.52v1.48h-.52Zm-.83,0h.52v1.48h-.52Zm-4.09,0h.52v1.48h-.52Zm-.81,0h.52v1.48h-.52Zm-3.57,1.48h-.51v-1.48h.51Zm.81,0h-.51v-1.48h.51Zm.82,0h-.52v-1.48h.52Zm.83,0h-.52v-1.48h.52Zm.81,0H636v-1.48h.51Zm2,13.23H637v-3.37a.77.77,0,0,1,.77-.76.76.76,0,0,1,.76.76Zm-.76-7.25a1,1,0,1,1,1-1A1,1,0,0,1,637.73,423.88Zm1.26-6h-.52v-1.48H639Zm.82,0h-.52v-1.48h.52Zm.81,0h-.52v-1.48h.52Zm.29-1.48h.52v1.48h-.52Zm2.17,14.71h-1.53v-3.37a.76.76,0,0,1,.76-.76.77.77,0,0,1,.77.76Zm-.77-7.25a1,1,0,1,1,1-1A1,1,0,0,1,642.31,423.88Zm1.58-6h-.52v-1.48h.52Zm.82,0h-.52v-1.48h.52Zm11.1-1.48h.52v1.48h-.52Zm-4.08,0h.52v1.48h-.52Zm-5-2.78h1v1.47h-1Zm-1.55,0h1v1.47h-1Zm2.43,17.49h-1.52v-3.37a.76.76,0,1,1,1.52,0Zm-.76-7.25a1,1,0,1,1,1-1A1,1,0,0,1,646.9,423.88Zm2.42-8.77h-1v-1.47h1Zm.59-1.47h1v1.47h-1Zm2.34,17.49h-1.53v-3.37a.76.76,0,0,1,.76-.76.77.77,0,0,1,.77.76Zm-.77-7.25a1,1,0,1,1,1-1A1,1,0,0,1,651.48,423.88Zm1.58-6h-.52v-1.48h.52Zm.81,0h-.52v-1.48h.52Zm.83,0h-.52v-1.48h.52Zm.3-1.48h.52v1.48H655Zm1.83,14.71h-1.52v-3.37a.76.76,0,1,1,1.52,0Zm-.76-7.25a1,1,0,1,1,1-1A1,1,0,0,1,656.07,423.88Zm1.07-6h-.51v-1.48h.51Zm.83,0h-.52v-1.48H658Zm5.56-6.29h.52v1.47h-.52ZM660,413.08h-.52v-1.47H660Zm.81,0h-.52v-1.47h.52Zm.82,0h-.52v-1.47h.52Zm.83,0h-.52v-1.47h.52Zm.29-1.47h.52v1.47h-.52Zm1.9,15.39H663v-3.85h1.65Zm-.83-7.19a1,1,0,1,1,1-1A1,1,0,0,1,663.79,419.81Zm1.08-6.73h-.52v-1.47h.52Zm.83,0h-.52v-1.47h.52Zm.81,0H666v-1.47h.52Zm.82,0h-.52v-1.47h.52Zm4.37-4.46a.46.46,0,0,1-.46.46h-1.47a.46.46,0,0,1-.46-.46v-7.2a.46.46,0,0,1,.46-.46h1.47a.46.46,0,0,1,.46.46Zm12-38,.28-.09v3.3h-.28Zm.63,11.26a.42.42,0,0,1,.42.43v1.11a.43.43,0,1,1-.85,0V382.3A.43.43,0,0,1,684.29,381.87Zm-.7,10.15a.56.56,0,0,1,1.12,0v3a.56.56,0,0,1-1.12,0Zm-.69,18.85v1.48h-.52v-1.48Zm.77,7.9a1,1,0,1,1-1-1A1,1,0,0,1,683.67,418.77Zm-1.9-36.15a.43.43,0,1,1,.85,0v1.11a.43.43,0,0,1-.85,0Zm-.91,9.4a.56.56,0,0,1,1.12,0v3a.56.56,0,0,1-1.12,0Zm-1.19-9.09a.43.43,0,0,1,.85,0v1.12a.43.43,0,0,1-.85,0Zm-2.09.32a.43.43,0,0,1,.85,0v1.12a.43.43,0,0,1-.85,0Zm-2.1.32a.43.43,0,0,1,.85,0v1.11a.43.43,0,1,1-.85,0Zm-.09,9.09a.57.57,0,0,1,1.13,0v3a.57.57,0,1,1-1.13,0Zm1.4,26.11a1,1,0,1,1-1-1A1,1,0,0,1,676.79,418.77ZM672.66,393a.56.56,0,0,1,.56-.56.57.57,0,0,1,.57.56v3a.58.58,0,0,1-.57.57.57.57,0,0,1-.56-.57Zm.46,15.79a.46.46,0,0,1-.46-.46V401.1a.45.45,0,0,1,.46-.46h1.46a.45.45,0,0,1,.46.46v7.21a.46.46,0,0,1-.46.46Zm3.68,19.41h-2.07v-4.56a1,1,0,1,1,2.07,0Zm1.2-15.83h-.52v-1.48H678Zm-.07-3.9h-1.47A.47.47,0,0,1,676,408v-7.21a.47.47,0,0,1,.46-.46h1.47a.47.47,0,0,1,.46.46V408A.47.47,0,0,1,677.93,408.45Zm.88,3.9h-.52v-1.48h.52Zm-.12-16.45a.57.57,0,0,1-.57-.56v-3a.57.57,0,0,1,.57-.56.56.56,0,0,1,.56.56v3A.56.56,0,0,1,678.69,395.9Zm.93,16.45h-.51v-1.48h.51Zm.83,0h-.51v-1.48h.51Zm.82,0h-.52v-1.48h.52Zm-1.46-4.22a.47.47,0,0,1-.46-.46v-7.21a.47.47,0,0,1,.46-.46h1.47a.47.47,0,0,1,.46.46v7.21a.47.47,0,0,1-.46.46Zm1.75,2.74h.52v1.48h-.52Zm2.11,17.31H681.6v-4.56a1,1,0,1,1,2.07,0Zm.05-15.83h-.51v-1.48h.51Zm.82,0H684v-1.48h.52Zm.54-5a.45.45,0,0,1-.46.46h-1.46a.45.45,0,0,1-.46-.46v-7.21a.46.46,0,0,1,.46-.46h1.46a.46.46,0,0,1,.46.46Zm.18-33.53h-1.08v-3.44l1.08-.52Zm12,19.16a.56.56,0,1,1,1.12,0v3a.56.56,0,1,1-1.12,0Zm-2.55-9.41a.43.43,0,0,1,.85,0v1.11a.43.43,0,1,1-.85,0Zm-.18,9.09a.56.56,0,0,1,1.12,0v3a.56.56,0,1,1-1.12,0Zm1.79,26.11a1,1,0,1,1-2.07,0,1,1,0,0,1,2.07,0Zm-3.7-35.52a.43.43,0,0,1,.85,0v1.12a.43.43,0,0,1-.85,0Zm-2.1-.32a.43.43,0,0,1,.85,0v1.12a.43.43,0,0,1-.85,0Zm-.33,9.09v3a.57.57,0,0,1-1.13,0v-3a.57.57,0,0,1,1.13,0Zm-1.76-9.4a.43.43,0,1,1,.85,0v1.11a.43.43,0,0,1-.85,0Zm.24,28.25v1.48h-.52v-1.48Zm.77,7.9a1,1,0,1,1-1-1A1,1,0,0,1,689.49,418.77Zm-2.34-48.25.28.09v3.21h-.28Zm.36,21.5v3a.57.57,0,0,1-.57.56.56.56,0,0,1-.56-.56v-3a.56.56,0,0,1,.56-.56A.57.57,0,0,1,687.51,392Zm-.28-9.72v1.11a.43.43,0,1,1-.85,0V382.3a.43.43,0,1,1,.85,0Zm-1.39-12.44,1.07.52v3.44h-1.07Zm.17,37.49v-7.21a.47.47,0,0,1,.46-.46h1.47a.47.47,0,0,1,.46.46v7.21a.46.46,0,0,1-.46.46h-1.47A.46.46,0,0,1,686,407.35Zm1.06,5h-.52v-1.48h.52Zm.3-1.48h.52v1.48h-.52Zm2.12,17.31h-2.07v-4.56a1,1,0,1,1,2.07,0Zm0-15.83H689v-1.48h.52Zm.81,0h-.52v-1.48h.52Zm.82,0h-.52v-1.48h.52Zm-1.34-4.22a.46.46,0,0,1-.46-.46v-7.21a.46.46,0,0,1,.46-.46h1.46a.46.46,0,0,1,.46.46v7.21a.46.46,0,0,1-.46.46Zm2.17,4.22h-.52v-1.48H692Zm-.14-17v-3a.56.56,0,0,1,1.12,0v3a.56.56,0,0,1-1.12,0Zm.95,17h-.52v-1.48h.52Zm-.1-4.36v-7.21a.47.47,0,0,1,.46-.46h1.47a.47.47,0,0,1,.46.46V408a.47.47,0,0,1-.46.46h-1.47A.47.47,0,0,1,692.7,408Zm.91,4.36h-.52v-1.48h.52Zm2.76,15.83H694.3v-4.56a1,1,0,1,1,2.07,0Zm2.07-19.87a.47.47,0,0,1-.46.46h-1.47a.47.47,0,0,1-.46-.46V401.1a.46.46,0,0,1,.46-.46H698a.46.46,0,0,1,.46.46Zm3.34.31a.45.45,0,0,1-.46.46h-1.46a.45.45,0,0,1-.46-.46v-7.2a.45.45,0,0,1,.46-.46h1.46a.45.45,0,0,1,.46.46Zm5.26,3h.52v1.47H707Zm-2.76,1.47h-.51v-1.47h.51Zm.82,0h-.52v-1.47h.52Zm.82,0h-.52v-1.47h.52Zm.31-1.47h.51v1.47h-.51ZM708.12,427h-1.64v-3.85h1.64Zm-.82-7.19a1,1,0,1,1,1-1A1,1,0,0,1,707.3,419.81Zm1.07-6.73h-.52v-1.47h.52Zm.82,0h-.52v-1.47h.52Zm.82,0h-.51v-1.47H710Zm.82,0h-.52v-1.47h.52Zm.81,0h-.52v-1.47h.52Zm11.69.56h1v1.47h-1Zm-4.48,2.78h.52v1.48h-.52Zm-4.08,0h.51v1.48h-.51Zm-1.13,1.48h-.52v-1.48h.52Zm.31-1.48h.52v1.48H714Zm1.84,14.71h-1.53v-3.37a.77.77,0,0,1,1.53,0Zm-.76-7.25a1,1,0,1,1,1-1A1,1,0,0,1,715,423.88Zm1.06-6h-.51v-1.48h.51Zm.82,0h-.52v-1.48h.52Zm.83,0h-.52v-1.48h.52Zm.81,0H718v-1.48h.51Zm1.82,13.23h-1.52v-3.37a.76.76,0,1,1,1.52,0Zm-.76-7.25a1,1,0,1,1,1-1A1,1,0,0,1,719.61,423.88Zm1.57-8.77h-1v-1.47h1Zm1.58,0h-1v-1.47h1Zm2.2,16h-1.53v-3.37a.77.77,0,0,1,1.53,0Zm-.76-7.25a1,1,0,1,1,1-1A1,1,0,0,1,724.2,423.88Zm1.66-8.77h-1v-1.47h1Zm7.89,1.31h.52v1.48h-.52Zm-.82,0h.52v1.48h-.52Zm-4.08,0h.51v1.48h-.51Zm-.83,0h.52v1.48H728Zm-1.12,1.48h-.51v-1.48h.51Zm.82,0h-.52v-1.48h.52Zm1.82,13.23H728v-3.37a.76.76,0,0,1,1.52,0Zm-.76-7.25a1,1,0,1,1,1-1A1,1,0,0,1,728.78,423.88Zm1.4-6h-.52v-1.48h.52Zm.81,0h-.52v-1.48H731Zm.82,0h-.52v-1.48h.52Zm.29-1.48h.52v1.48h-.52Zm2,14.71H732.6v-3.37a.77.77,0,0,1,1.53,0Zm-.76-7.25a1,1,0,1,1,1-1A1,1,0,0,1,733.37,423.88Zm1.71-6h-.52v-1.48h.52Zm.81,0h-.52v-1.48h.52Zm.83,0h-.52v-1.48h.52Zm.82,0H737v-1.48h.52Zm.81,0h-.52v-1.48h.52Z" transform="translate(-627.53 -330.71)" fill="#3facef" opacity="0.83"/></g><text transform="matrix(-0.77, -0.63, 0.63, -0.77, 38.6, 84)" font-size="13.7" fill="#f9f9f9" font-family="Montserrat-ExtraBold, Montserrat" font-weight="700"> </text><text transform="matrix(-0.69, -0.72, 0.72, -0.69, 35.66, 81.6)" font-size="13.7" fill="#f9f9f9" font-family="Montserrat-ExtraBold, Montserrat" font-weight="700"> </text><text transform="matrix(-0.6, -0.8, 0.8, -0.6, 33.02, 78.87)" font-size="13.7" fill="#f9f9f9" font-family="Montserrat-ExtraBold, Montserrat" font-weight="700"> </text><text transform="matrix(-0.51, -0.86, 0.86, -0.51, 30.7, 75.83)" font-size="13.7" fill="#f9f9f9" font-family="Montserrat-ExtraBold, Montserrat" font-weight="700"> </text><text transform="translate(28.78 72.58) rotate(-113.78)" font-size="13.7" fill="#f9f9f9" font-family="Montserrat-ExtraBold, Montserrat" font-weight="700"> </text><text transform="translate(27.23 69.08) rotate(-107.12)" font-size="13.7" fill="#f9f9f9" font-family="Montserrat-ExtraBold, Montserrat" font-weight="700"> </text><text transform="matrix(-0.18, -0.98, 0.98, -0.18, 26.1, 65.45)" font-size="13.7" fill="#f9f9f9" font-family="Montserrat-ExtraBold, Montserrat" font-weight="700"> </text><text transform="matrix(-0.06, -1, 1, -0.06, 25.4, 61.71)" font-size="13.7" fill="#f9f9f9" font-family="Montserrat-ExtraBold, Montserrat" font-weight="700"> </text><text transform="translate(24.72 58.13) rotate(-80.89)" font-size="13.7" fill="#f9f9f9" font-family="Montserrat-ExtraBold, Montserrat" font-weight="700">D</text><text transform="matrix(0.47, -0.88, 0.88, 0.47, 26.31, 47.5)" font-size="13.7" fill="#f9f9f9" font-family="Montserrat-ExtraBold, Montserrat" font-weight="700">O</text><text transform="translate(31.87 37.86) rotate(-49.03)" font-size="13.7" fill="#f9f9f9" font-family="Montserrat-ExtraBold, Montserrat" font-weight="700"> </text><text transform="translate(34.36 34.97) rotate(-42.28)" font-size="13.7" fill="#f9f9f9" font-family="Montserrat-ExtraBold, Montserrat" font-weight="700"> </text><text transform="matrix(0.86, -0.51, 0.51, 0.86, 36.86, 32.29)" font-size="13.7" fill="#f9f9f9" font-family="Montserrat-ExtraBold, Montserrat" font-weight="700">Y</text><text transform="translate(44.07 27.63) rotate(-14.32)" font-size="13.7" fill="#f9f9f9" font-family="Montserrat-ExtraBold, Montserrat" font-weight="700">O</text><text transform="translate(54.73 24.88) rotate(4.34)" font-size="13.7" fill="#f9f9f9" font-family="Montserrat-ExtraBold, Montserrat" font-weight="700">U</text><text transform="translate(64.92 25.62) rotate(21.62)" font-size="13.7" fill="#f9f9f9" font-family="Montserrat-ExtraBold, Montserrat" font-weight="700">R</text><text transform="matrix(0.84, 0.55, -0.55, 0.84, 73.87, 29.46)" font-size="13.7" fill="#f9f9f9" font-family="Montserrat-ExtraBold, Montserrat" font-weight="700"> </text><text transform="translate(77.05 31.54) rotate(40.05)" font-size="13.7" fill="#f9f9f9" font-family="Montserrat-ExtraBold, Montserrat" font-weight="700"> </text><text transform="translate(80 33.78) rotate(49.81)" font-size="13.7" fill="#f9f9f9" font-family="Montserrat-ExtraBold, Montserrat" font-weight="700">J</text><text transform="matrix(0.41, 0.91, -0.91, 0.41, 84.88, 39.03)" font-size="13.7" fill="#f9f9f9" font-family="Montserrat-ExtraBold, Montserrat" font-weight="700">O</text><text transform="translate(89.41 49.07) rotate(84.05)" font-size="13.7" fill="#f9f9f9" font-family="Montserrat-ExtraBold, Montserrat" font-weight="700">B</text></svg>