<svg xmlns="http://www.w3.org/2000/svg" viewBox="0 0 86.06 86.53"><title>missing-member-logo</title><circle cx="43.37" cy="42.68" r="42.18" style="fill:none;stroke:#e1e1e1;stroke-miterlimit:10"/><ellipse cx="42.37" cy="43.84" rx="41.87" ry="42.18" style="fill:#ff4741"/><path d="M728.64,328l-4.44.32,3.76,1.91.08,1.06-3.36,2.38,4.33-.29.14,2.19-8.38.56-.13-1.95,4.64-3.27-5-2.55-.13-2,8.39-.59Z" transform="translate(-715.81 -285.72)" style="fill:#f9f9f9"/><path d="M720.74,323l.42-2.34,8.27,1.48-.42,2.34Z" transform="translate(-715.81 -285.72)" style="fill:#f9f9f9"/><path d="M728.73,321.05l-1.35-1.36a5.32,5.32,0,0,0,1.77-2.28c.35-.92.24-1.38-.14-1.52-1.25-.49-2.06,4.32-5,3.19-1.4-.54-2.1-2.12-1.2-4.45a6.41,6.41,0,0,1,1.78-2.58l1.38,1.32a5,5,0,0,0-1.44,1.94c-.36.93-.18,1.38.22,1.54,1.19.46,2-4.33,4.9-3.21,1.37.53,2.09,2.12,1.19,4.45A6.65,6.65,0,0,1,728.73,321.05Z" transform="translate(-715.81 -285.72)" style="fill:#f9f9f9"/><path d="M731.5,314l-1-1.65a5.35,5.35,0,0,0,2.28-1.78c.57-.8.57-1.28.23-1.51-1.08-.77-3.06,3.68-5.6,1.87-1.23-.87-1.51-2.57-.06-4.61a6.3,6.3,0,0,1,2.36-2.06l1,1.62a5.11,5.11,0,0,0-1.88,1.52c-.57.81-.51,1.3-.17,1.55,1,.74,3-3.7,5.55-1.9,1.2.85,1.5,2.57.06,4.6A6.62,6.62,0,0,1,731.5,314Z" transform="translate(-715.81 -285.72)" style="fill:#f9f9f9"/><path d="M731.21,302l1.71-1.64,5.81,6.07L737,308.07Z" transform="translate(-715.81 -285.72)" style="fill:#f9f9f9"/><path d="M742.1,294l4.36,7.17-1.68,1-5.49-1.9,2.33,3.82-2,1.21-4.35-7.18,1.67-1,5.49,1.9-2.32-3.83Z" transform="translate(-715.81 -285.72)" style="fill:#f9f9f9"/><path d="M752,295.17l2-.5.84,3.37a6.32,6.32,0,0,1-3.17,1.89,4.38,4.38,0,1,1-2.06-8.49,4.59,4.59,0,0,1,3.94.61l-1.14,1.69a2.63,2.63,0,0,0-2.21-.42,2.4,2.4,0,0,0,1.14,4.66,3,3,0,0,0,1.17-.57Z" transform="translate(-715.81 -285.72)" style="fill:#f9f9f9"/><path d="M766.92,300.11l.86-4.37L765,298.87l-1-.21-1.41-3.86-.86,4.25-2.15-.43,1.65-8.24,1.92.39L765,296.1l3.78-4.18,1.92.38-1.64,8.24Z" transform="translate(-715.81 -285.72)" style="fill:#f9f9f9"/><path d="M776.87,302.91l-.9,1.6-5.88-3.3,4.11-7.33,5.75,3.23-.9,1.6-3.69-2.07-.7,1.23,3.26,1.83-.87,1.55-3.26-1.83-.75,1.34Z" transform="translate(-715.81 -285.72)" style="fill:#f9f9f9"/><path d="M781.93,310.43l3.25-3.05-4.13.89-.72-.78,1.11-4-3.18,3-1.49-1.61,6.15-5.72,1.33,1.43-1.54,5.47,5.52-1.2,1.33,1.44L783.42,312Z" transform="translate(-715.81 -285.72)" style="fill:#f9f9f9"/><path d="M789.29,319.46c-1.33.59-2.6-.16-3.52-2.22l-1.85-4.14,7.67-3.43,1.75,3.92c.9,2,.52,3.37-.66,3.9a2,2,0,0,1-2.13-.28A2.12,2.12,0,0,1,789.29,319.46Zm-.74-2.3c.52-.24.6-.74.26-1.49l-.81-1.82-1.55.7.81,1.82C787.59,317.11,788,317.39,788.55,317.16Zm2.43-4.64-1.48.66.67,1.49c.32.72.74,1,1.23.76s.57-.7.25-1.42Z" transform="translate(-715.81 -285.72)" style="fill:#f9f9f9"/><path d="M790.05,327.63l-1.81.26-1-6.67,8.31-1.2.93,6.52-1.81.26-.61-4.19-1.4.2.53,3.7-1.75.25-.53-3.69-1.52.22Z" transform="translate(-715.81 -285.72)" style="fill:#f9f9f9"/><path d="M790,332.72l.16-1.29-2.22-.28.3-2.35,8.33,1-.48,3.81c-.28,2.28-1.64,3.56-3.55,3.32a2.81,2.81,0,0,1-2.42-2l-2.84,1.46.31-2.52Zm4.25.56.17-1.31-2.44-.31-.17,1.31c-.12,1,.27,1.52,1,1.62S794.14,334.25,794.26,333.28Z" transform="translate(-715.81 -285.72)" style="fill:#f9f9f9"/><ellipse cx="32.8" cy="34.05" rx="4.1" ry="4.88" style="fill:none;stroke:#fff;stroke-miterlimit:10;stroke-width:0.75px;stroke-dasharray:2.0151729583740234,2.0151729583740234"/><path d="M749.07,360.53a7.35,7.35,0,0,1-.67.75" transform="translate(-715.81 -285.72)" style="fill:none;stroke:#fff;stroke-miterlimit:10;stroke-width:0.75px"/><path d="M746.81,362.33c-2.09.65-3.17-2.12-3.17-2.12l-.64-14" transform="translate(-715.81 -285.72)" style="fill:none;stroke:#fff;stroke-miterlimit:10;stroke-width:0.75px;stroke-dasharray:1.922255039215088,1.922255039215088"/><path d="M743,345.21l-.05-1a3,3,0,0,0,.9.41" transform="translate(-715.81 -285.72)" style="fill:none;stroke:#fff;stroke-miterlimit:10;stroke-width:0.75px"/><path d="M744.91,343.5c-.14-.09-.4,0-.4,0s-.55.81-1.92-.4-2.27-6.73-2.27-6.73l1.54-8.67a1.62,1.62,0,0,1,1.78-1l4.46-.64s7.13.16,7.78.81,3,3.72,3,3.72.32.81,1.7,0a37.69,37.69,0,0,0,3.48-2.51s3.73.24,2.84,3.41l-6.48,4.53s-.81.73-2.43,0a7,7,0,0,1-2.09-1.68" transform="translate(-715.81 -285.72)" style="fill:none;stroke:#fff;stroke-miterlimit:10;stroke-width:0.75px;stroke-dasharray:1.9834296703338623,1.9834296703338623"/><path d="M755.26,333.61c-.37-.46-.6-.8-.6-.8l0,1" transform="translate(-715.81 -285.72)" style="fill:none;stroke:#fff;stroke-miterlimit:10;stroke-width:0.75px"/><path d="M754.58,335.72l-.73,24.81s-2.19,4.05-4.78,0l.27-10" transform="translate(-715.81 -285.72)" style="fill:none;stroke:#fff;stroke-miterlimit:10;stroke-width:0.75px;stroke-dasharray:1.911598563194275,1.911598563194275"/><line x1="33.56" y1="63.81" x2="33.58" y2="62.81" style="fill:none;stroke:#fff;stroke-miterlimit:10;stroke-width:0.75px"/><path d="M779.86,363.43H738.32s11.82,9.62,20.28,8.53S779.86,363.43,779.86,363.43Z" transform="translate(-715.81 -285.72)" style="fill:#fff"/><polygon points="45.18 56.89 65.9 49.91 67.2 54.15 64.1 55.29 63.94 78.29 48.61 78.29 48.61 60.35 46.92 61 45.18 56.89" style="fill:#fff"/><path d="M772.76,340.65l0-10Z" transform="translate(-715.81 -285.72)" style="fill:none;stroke:#e69a95;stroke-miterlimit:10"/><polygon points="53.51 43.92 60.9 47.7 61.67 46.52 55.88 40.73 53.51 43.92" style="fill:#fff"/><path d="M768.62,329.17l2.43-3.43s-.19-1.18-2.14-1.24c0,0-1.53.42-1.95,1.3a2.58,2.58,0,0,0,0,2.36S767.85,329.46,768.62,329.17Z" transform="translate(-715.81 -285.72)" style="fill:#fff"/><ellipse cx="42.73" cy="43.5" rx="41.23" ry="41.53" style="fill:none;stroke:#e1e1e1;stroke-miterlimit:10;stroke-width:3px"/></svg>