<svg xmlns="http://www.w3.org/2000/svg" viewBox="0 0 86.06 86.53"><title>missingMember</title><circle cx="43.37" cy="42.68" r="42.18" style="fill:none;stroke:#e1e1e1;stroke-miterlimit:10"/><ellipse cx="42.37" cy="43.84" rx="41.87" ry="42.18" style="fill:#ff4741"/><path d="M729.91,320l-3.63-.77,2.57,2.4-.19.86-3.23,1.13,3.53.77-.39,1.78-6.84-1.49.35-1.59,4.47-1.54-3.44-3.2.35-1.6,6.84,1.48Z" transform="translate(-715.81 -285.72)" style="fill:#f9f9f9"/><path d="M724.59,314.38l.81-1.81,6.39,2.87-.82,1.81Z" transform="translate(-715.81 -285.72)" style="fill:#f9f9f9"/><path d="M731.47,314.37l-.86-1.35a4.43,4.43,0,0,0,1.85-1.55c.45-.68.43-1.07.15-1.26-.93-.61-2.44,3.16-4.61,1.73-1-.69-1.33-2.11-.19-3.84a5.13,5.13,0,0,1,1.91-1.78l.89,1.31a4.17,4.17,0,0,0-1.52,1.33c-.46.69-.39,1.09-.1,1.29.9.58,2.41-3.17,4.57-1.75,1,.67,1.32,2.1.18,3.83A5.57,5.57,0,0,1,731.47,314.37Z" transform="translate(-715.81 -285.72)" style="fill:#f9f9f9"/><path d="M735,309.09l-.56-1.5a4.34,4.34,0,0,0,2.13-1.13c.59-.58.65-1,.42-1.21-.78-.79-3.05,2.58-4.88.73-.88-.89-.86-2.34.62-3.8a5.25,5.25,0,0,1,2.24-1.34l.59,1.47a4.22,4.22,0,0,0-1.76,1c-.59.58-.61,1-.36,1.24.75.76,3-2.59,4.83-.75.86.87.86,2.32-.62,3.78A5.54,5.54,0,0,1,735,309.09Z" transform="translate(-715.81 -285.72)" style="fill:#f9f9f9"/><path d="M736.35,299.25,738,298.1l4.06,5.7L740.41,305Z" transform="translate(-715.81 -285.72)" style="fill:#f9f9f9"/><path d="M746.07,293.86l2.93,6.36-1.48.68-4.37-2.09,1.57,3.39L743,303,740,296.66l1.48-.68,4.37,2.08-1.57-3.38Z" transform="translate(-715.81 -285.72)" style="fill:#f9f9f9"/><path d="M754,295.49l1.73-.31.51,2.85a5.16,5.16,0,0,1-2.73,1.4,3.65,3.65,0,1,1-1.25-7.17,3.84,3.84,0,0,1,3.23.72l-1,1.35a2.16,2.16,0,0,0-1.81-.47,2,2,0,0,0,.69,3.94,2.6,2.6,0,0,0,1-.42Z" transform="translate(-715.81 -285.72)" style="fill:#f9f9f9"/><path d="M766.36,299.89l.7-3.64-2.35,2.61-.87-.17-1.18-3.22L762,299l-1.8-.35,1.37-6.87,1.59.32,1.63,4.44,3.14-3.49,1.6.32-1.35,6.86Z" transform="translate(-715.81 -285.72)" style="fill:#f9f9f9"/><path d="M774.83,301.87l-.68,1.37-5-2.48,3.09-6.27,4.92,2.42-.68,1.37-3.16-1.56-.52,1.06,2.79,1.37-.65,1.33-2.79-1.37-.57,1.15Z" transform="translate(-715.81 -285.72)" style="fill:#f9f9f9"/><path d="M779.64,307.73l2.43-2.8L778.73,306l-.67-.58.59-3.38-2.39,2.71-1.37-1.21,4.62-5.25,1.22,1.07-.82,4.66,4.47-1.45,1.23,1.08L781,308.93Z" transform="translate(-715.81 -285.72)" style="fill:#f9f9f9"/><path d="M786.83,314.39c-1,.65-2.16.2-3.17-1.38l-2-3.18L787.5,306l1.93,3c1,1.55.86,2.71,0,3.3a1.68,1.68,0,0,1-1.79,0A1.78,1.78,0,0,1,786.83,314.39Zm-.9-1.8c.4-.26.4-.69,0-1.26l-.9-1.4-1.19.77.89,1.4C785.14,312.67,785.53,312.85,785.93,312.59Zm1.43-4.13-1.14.73.74,1.15c.35.55.73.71,1.11.47s.38-.65,0-1.2Z" transform="translate(-715.81 -285.72)" style="fill:#f9f9f9"/><path d="M788.78,320.94l-1.44.51-1.87-5.29,6.59-2.34,1.83,5.18-1.44.51-1.18-3.33-1.11.4,1,2.93-1.4.49-1-2.93-1.21.43Z" transform="translate(-715.81 -285.72)" style="fill:#f9f9f9"/><path d="M789.72,325.09,789.6,324l-1.85.21-.22-2,7-.78.36,3.18c.21,1.9-.64,3.21-2.23,3.39a2.32,2.32,0,0,1-2.35-1.12l-2,1.75-.24-2.11Zm3.56-.38-.12-1.09-2,.22.12,1.1c.09.81.52,1.18,1.15,1.11S793.37,325.52,793.28,324.71Z" transform="translate(-715.81 -285.72)" style="fill:#f9f9f9"/><ellipse cx="32.8" cy="34.05" rx="4.1" ry="4.88" style="fill:none;stroke:#fff;stroke-miterlimit:10;stroke-width:0.75px;stroke-dasharray:2.0151729583740234,2.0151729583740234"/><path d="M749.07,360.53a7.35,7.35,0,0,1-.67.75" transform="translate(-715.81 -285.72)" style="fill:none;stroke:#fff;stroke-miterlimit:10;stroke-width:0.75px"/><path d="M746.81,362.33c-2.09.65-3.17-2.12-3.17-2.12l-.64-14" transform="translate(-715.81 -285.72)" style="fill:none;stroke:#fff;stroke-miterlimit:10;stroke-width:0.75px;stroke-dasharray:1.922255039215088,1.922255039215088"/><path d="M743,345.21l-.05-1a3,3,0,0,0,.9.41" transform="translate(-715.81 -285.72)" style="fill:none;stroke:#fff;stroke-miterlimit:10;stroke-width:0.75px"/><path d="M744.91,343.5c-.14-.09-.4,0-.4,0s-.55.81-1.92-.4-2.27-6.73-2.27-6.73l1.54-8.67a1.62,1.62,0,0,1,1.78-1l4.46-.64s7.13.16,7.78.81,3,3.72,3,3.72.32.81,1.7,0a37.69,37.69,0,0,0,3.48-2.51s3.73.24,2.84,3.41l-6.48,4.53s-.81.73-2.43,0a7,7,0,0,1-2.09-1.68" transform="translate(-715.81 -285.72)" style="fill:none;stroke:#fff;stroke-miterlimit:10;stroke-width:0.75px;stroke-dasharray:1.9834296703338623,1.9834296703338623"/><path d="M755.26,333.61c-.37-.46-.6-.8-.6-.8l0,1" transform="translate(-715.81 -285.72)" style="fill:none;stroke:#fff;stroke-miterlimit:10;stroke-width:0.75px"/><path d="M754.58,335.72l-.73,24.81s-2.19,4.05-4.78,0l.27-10" transform="translate(-715.81 -285.72)" style="fill:none;stroke:#fff;stroke-miterlimit:10;stroke-width:0.75px;stroke-dasharray:1.911598563194275,1.911598563194275"/><line x1="33.56" y1="63.81" x2="33.58" y2="62.81" style="fill:none;stroke:#fff;stroke-miterlimit:10;stroke-width:0.75px"/><path d="M779.86,363.43H738.32s11.82,9.62,20.28,8.53S779.86,363.43,779.86,363.43Z" transform="translate(-715.81 -285.72)" style="fill:#fff"/><polygon points="45.18 56.89 65.9 49.91 67.2 54.15 64.1 55.29 63.94 78.29 48.61 78.29 48.61 60.35 46.92 61 45.18 56.89" style="fill:#fff"/><path d="M772.76,340.65l0-10Z" transform="translate(-715.81 -285.72)" style="fill:none;stroke:#fff;stroke-miterlimit:10"/><polygon points="53.51 43.92 60.9 47.7 61.67 46.52 55.88 40.73 53.51 43.92" style="fill:#fff"/><path d="M768.62,329.17l2.43-3.43s-.19-1.18-2.14-1.24c0,0-1.53.42-1.95,1.3a2.58,2.58,0,0,0,0,2.36S767.85,329.46,768.62,329.17Z" transform="translate(-715.81 -285.72)" style="fill:#fff"/><ellipse cx="42.73" cy="43.5" rx="41.23" ry="41.53" style="fill:none;stroke:#e1e1e1;stroke-miterlimit:10;stroke-width:3px"/></svg>