<?xml version="1.0" encoding="utf-8"?>
<!-- Generator: Adobe Illustrator 23.0.1, SVG Export Plug-In . SVG Version: 6.00 Build 0)  -->
<svg version="1.1" xmlns="http://www.w3.org/2000/svg" xmlns:xlink="http://www.w3.org/1999/xlink" x="0px" y="0px"
	 viewBox="0 0 86.1 86.5" style="enable-background:new 0 0 86.1 86.5;" xml:space="preserve">
<style type="text/css">
	.st0{fill:#EE7967;stroke:#D94D49;stroke-width:12;stroke-miterlimit:10;}
	.st1{fill:none;stroke:#FFFFFF;stroke-width:0.75;stroke-miterlimit:10;stroke-dasharray:2.0152,2.0152;}
	.st2{fill:none;stroke:#FFFFFF;stroke-width:0.75;stroke-miterlimit:10;}
	.st3{fill:none;stroke:#FFFFFF;stroke-width:0.75;stroke-miterlimit:10;stroke-dasharray:1.9223,1.9223;}
	.st4{fill:none;stroke:#FFFFFF;stroke-width:0.75;stroke-miterlimit:10;stroke-dasharray:1.9834,1.9834;}
	.st5{fill:none;stroke:#FFFFFF;stroke-width:0.75;stroke-miterlimit:10;stroke-dasharray:1.9116,1.9116;}
	.st6{fill:none;stroke:#FFFFFF;stroke-miterlimit:10;}
	.st7{fill:#FFFFFF;}
	.st8{fill:#08313D;}
	.st9{fill:#6AC1E5;}
	.st10{font-family:'Raleway-ExtraBold';}
	.st11{font-size:10px;}
</style>
<g id="Layer_1">
	<title>missing-member-logo</title>
	<ellipse class="st0" cx="43.6" cy="43.2" rx="35.5" ry="35.7"/>
</g>
<g id="drawing">
	<g>
		<ellipse class="st1" cx="31.9" cy="26.7" rx="3.7" ry="4.5"/>
		<path class="st2" d="M32.3,63.9c-0.2,0.2-0.4,0.5-0.6,0.7"/>
		<path class="st3" d="M30.2,65.5c-1.9,0.6-2.9-1.9-2.9-1.9l-0.6-12.8"/>
		<path class="st2" d="M26.8,49.9l0-0.9c0.3,0.2,0.5,0.3,0.8,0.4"/>
		<path class="st4" d="M28.5,48.3c-0.1-0.1-0.4,0-0.4,0s-0.5,0.7-1.8-0.4c-1.3-1.1-2.1-6.1-2.1-6.1l1.4-7.9c0.3-0.7,0.9-1,1.6-0.9
			l4.1-0.6c0,0,6.5,0.1,7.1,0.7c0.6,0.6,2.7,3.4,2.7,3.4s0.3,0.7,1.6,0c1.1-0.7,2.2-1.5,3.2-2.3c0,0,3.4,0.2,2.6,3.1l-5.9,4.1
			c0,0-0.7,0.7-2.2,0c-0.7-0.4-1.4-0.9-1.9-1.5"/>
		<path class="st5" d="M37.3,41.2l-0.7,22.7c0,0-2,3.7-4.4,0l0.2-9.1"/>
		<line class="st2" x1="32.6" y1="53.8" x2="32.6" y2="52.9"/>
		<path class="st6" d="M53.9,45.7v-9.1V45.7z"/>
		<polygon class="st7" points="50.8,35.7 57.5,39.1 58.2,38.1 52.9,32.8 		"/>
		<path class="st7" d="M50.1,35.2l2.2-3.1c0,0-0.2-1.1-2-1.1c0,0-1.4,0.4-1.8,1.2c-0.3,0.7-0.3,1.5,0,2.2
			C48.6,34.3,49.4,35.5,50.1,35.2z"/>
		<polygon class="st7" points="43.2,47.5 62.1,41.1 63.3,45 60.5,46.1 60.3,67.1 46.3,67.1 46.3,50.7 44.8,51.3 		"/>
	</g>
	<rect x="2.6" y="36" class="st8" width="81.8" height="14.5"/>
</g>
<g id="text">
	<g>
		<g>
			<path class="st7" d="M25.4,17.1c-1.1-1.7-1.7-2.6-2.8-4.3c0,1.8,0.1,2.6,0.2,4.4c-0.4,0.3-0.6,0.5-1,0.8
				c-1.6-0.6-2.5-0.8-4.2-1.2c1.4,1.5,2.1,2.2,3.5,3.7c-0.7,0.6-1,1-1.6,1.6c-2.5-2.3-3.7-3.5-6.2-5.8c0.9-0.9,1.3-1.4,2.2-2.2
				c2.2,0.4,3.2,0.7,5.2,1.4c-0.2-2.1-0.2-3.2-0.2-5.4c1-0.7,1.5-1,2.6-1.6c1.7,3,2.5,4.4,4.2,7.4C26.5,16.4,26.1,16.6,25.4,17.1z"
				/>
			<path class="st7" d="M28.9,15.1c-1.5-3.1-2.3-4.6-3.8-7.6c1-0.5,1.5-0.7,2.5-1.1c1.3,3.1,2,4.7,3.3,7.9
				C30.1,14.5,29.7,14.7,28.9,15.1z"/>
			<path class="st7" d="M37,6.2c0,0-0.2-0.1-0.4-0.1c-0.2-0.1-0.4-0.1-0.7-0.1c-0.3,0-0.6-0.1-1-0.1c-0.3,0-0.7,0-1,0.1
				c-0.4,0.1-0.7,0.3-0.9,0.4c-0.2,0.2-0.3,0.4-0.2,0.6c0,0.1,0.1,0.2,0.2,0.3s0.3,0.1,0.5,0.1c0.2,0,0.4,0,0.7,0c0.3,0,0.6,0,1,0
				c0.5,0,1,0,1.4,0.1c0.4,0.1,0.8,0.2,1.1,0.3c0.3,0.1,0.6,0.4,0.8,0.6c0.2,0.3,0.3,0.6,0.4,1c0.1,0.5,0,0.9-0.1,1.2
				c-0.2,0.4-0.4,0.7-0.7,0.9c-0.3,0.3-0.6,0.5-1,0.6s-0.8,0.3-1.3,0.4c-0.3,0.1-0.7,0.1-1,0.2c-0.4,0-0.7,0.1-1.1,0.1
				c-0.4,0-0.7,0-1.1,0c-0.4,0-0.7,0-1-0.1c0.1-0.8,0.2-1.2,0.4-2c0.1,0,0.2,0.1,0.4,0.1c0.2,0,0.5,0.1,0.8,0.1c0.3,0,0.7,0,1.1,0
				c0.4,0,0.8-0.1,1.1-0.2c0.8-0.2,1.1-0.5,1-0.9c0-0.2-0.1-0.3-0.3-0.3c-0.1-0.1-0.3-0.1-0.6-0.2c-0.2,0-0.5,0-0.8,0
				c-0.3,0-0.6,0-1,0c-0.5,0-0.9,0-1.3,0c-0.4,0-0.7-0.1-1-0.2c-0.3-0.1-0.5-0.2-0.7-0.4c-0.2-0.2-0.3-0.4-0.5-0.7
				c-0.2-0.4-0.2-0.8-0.1-1.2c0.1-0.4,0.3-0.8,0.6-1.1c0.3-0.3,0.7-0.7,1.2-0.9c0.5-0.3,1-0.5,1.6-0.6c0.4-0.1,0.8-0.2,1.2-0.2
				c0.4,0,0.8,0,1.2,0c0.4,0,0.7,0.1,1,0.1c0.3,0.1,0.6,0.1,0.9,0.2C37.5,5.1,37.4,5.4,37,6.2z"/>
			<path class="st7" d="M46.6,5.7c0,0-0.1-0.1-0.3-0.2c-0.2-0.1-0.4-0.2-0.7-0.3C45.3,5.1,45,5,44.6,4.9c-0.3-0.1-0.7-0.1-1-0.1
				c-0.4,0-0.8,0.1-1,0.2c-0.2,0.1-0.3,0.3-0.3,0.5c0,0.1,0.1,0.3,0.2,0.4C42.6,6,42.7,6,42.9,6.1c0.2,0.1,0.4,0.1,0.7,0.2
				c0.3,0.1,0.6,0.1,1,0.2c0.5,0.1,1,0.3,1.4,0.4c0.4,0.2,0.7,0.3,1,0.6c0.3,0.2,0.5,0.5,0.6,0.8c0.1,0.3,0.2,0.6,0.1,1
				c-0.1,0.5-0.2,0.9-0.4,1.2c-0.2,0.3-0.5,0.6-0.9,0.7c-0.3,0.2-0.7,0.3-1.2,0.4c-0.4,0.1-0.9,0.1-1.3,0.1c-0.3,0-0.7,0-1-0.1
				c-0.4,0-0.7-0.1-1.1-0.2c-0.3-0.1-0.7-0.2-1-0.3c-0.3-0.1-0.7-0.2-1-0.3c0.3-0.7,0.5-1.1,0.8-1.8c0.1,0,0.2,0.1,0.4,0.2
				c0.2,0.1,0.5,0.2,0.8,0.3c0.3,0.1,0.6,0.2,1,0.3c0.4,0.1,0.7,0.1,1.1,0.1c0.8,0,1.2-0.2,1.2-0.6c0-0.2,0-0.3-0.2-0.4
				c-0.1-0.1-0.3-0.2-0.5-0.3c-0.2-0.1-0.5-0.2-0.8-0.2c-0.3-0.1-0.6-0.1-1-0.2c-0.5-0.1-0.9-0.2-1.3-0.3c-0.4-0.1-0.7-0.3-0.9-0.4
				c-0.3-0.2-0.5-0.4-0.6-0.6c-0.1-0.2-0.2-0.5-0.3-0.8c0-0.4,0-0.9,0.2-1.2c0.2-0.4,0.5-0.7,0.8-0.9c0.4-0.3,0.8-0.5,1.3-0.6
				C42.6,3.1,43.1,3,43.7,3c0.4,0,0.8,0,1.2,0.1c0.4,0.1,0.8,0.2,1.1,0.3c0.4,0.1,0.7,0.2,1,0.4c0.3,0.1,0.6,0.3,0.8,0.4
				C47.3,4.8,47.1,5.1,46.6,5.7z"/>
			<path class="st7" d="M48.6,12c0.5-3.4,0.7-5.1,1.2-8.4c1.1,0.2,1.6,0.3,2.7,0.5c-0.7,3.3-1.1,5-1.8,8.3
				C49.9,12.2,49.5,12.1,48.6,12z"/>
			<path class="st7" d="M56.2,8.8c-0.6,1.8-0.9,2.8-1.6,4.6c-0.8-0.3-1.2-0.4-2.1-0.6c0.9-3.3,1.3-4.9,2.2-8.2
				c0.8,0.2,1.2,0.3,2,0.6c1.5,2.6,2.1,3.9,3,6.6c0.9-1.8,1.3-2.7,2.2-4.5c1,0.5,1.5,0.7,2.5,1.3c-1.7,3-2.5,4.5-4.2,7.4
				c-0.6-0.4-0.9-0.5-1.6-0.8C57.9,12.5,57.4,11.3,56.2,8.8z"/>
			<path class="st7" d="M67.4,20.2c-0.5,0-0.9-0.1-1.3-0.3c-0.4-0.2-0.8-0.4-1.1-0.7c-0.5-0.4-0.9-0.8-1.2-1.4
				c-0.3-0.5-0.5-1.1-0.6-1.6C63,15.7,63,15.1,63,14.5c0.1-0.6,0.2-1.1,0.5-1.6c0.3-0.5,0.7-0.9,1.2-1.2c0.5-0.3,1.1-0.5,1.7-0.5
				c0.6,0,1.3,0.1,2,0.3c0.7,0.2,1.4,0.6,2,1.2c0.8,0.7,1.5,1.5,1.8,2.3c0.4,0.8,0.5,1.6,0.3,2.3c-0.9-0.3-1.4-0.4-2.2-0.7
				c0.1-0.4,0-0.9-0.2-1.4c-0.2-0.5-0.5-0.9-0.9-1.2c-0.3-0.3-0.7-0.5-1-0.6c-0.3-0.1-0.7-0.1-1-0.1c-0.3,0-0.6,0.2-0.9,0.3
				c-0.3,0.2-0.5,0.4-0.7,0.7c-0.2,0.3-0.4,0.6-0.4,0.9c-0.1,0.3-0.1,0.7,0,1c0,0.3,0.2,0.6,0.3,0.9c0.2,0.3,0.4,0.6,0.7,0.8
				c0.3,0.3,0.7,0.5,1.1,0.6c0.4,0.1,0.9,0.2,1.4,0.2c0.1-0.1,0.1-0.1,0.2-0.2c-0.6-0.6-0.9-0.9-1.6-1.4c0.4-0.4,0.6-0.7,0.9-1.1
				c1.3,1.1,2,1.7,3.2,3c-1.3,1.2-1.9,1.8-3.2,3c-0.5-0.6-0.8-0.8-1.4-1.4C67,20.5,67.1,20.4,67.4,20.2z"/>
		</g>
	</g>
	<g>
		<g>
			<path class="st7" d="M19.4,75.5c1.2-1.7,1.8-2.5,3-4.1c-1.6,0.7-2.5,0.9-4.2,1.4c-0.5-0.4-0.7-0.6-1.1-1c0.2-1.8,0.3-2.7,0.7-4.4
				c-1.5,1.4-2.2,2.1-3.6,3.6c-0.8-0.8-1.2-1.3-2-2.2c2.6-2.2,3.9-3.3,6.5-5.5c0.7,0.8,1,1.2,1.7,1.9c-0.5,2-0.7,3-1,5.2
				c2.1-0.6,3-0.9,4.9-1.8c0.8,0.6,1.2,0.9,2,1.4c-1.8,2.9-2.7,4.3-4.5,7.2C20.8,76.5,20.3,76.2,19.4,75.5z"/>
			<path class="st7" d="M32,79.9c-0.2,0.7-0.3,1-0.5,1.7c-3.2-1-4.8-1.6-7.8-3.3c1.6-3,2.5-4.5,4.1-7.5c2.3,1.3,3.6,1.8,6.1,2.6
				c-0.2,0.7-0.3,1-0.5,1.7c-1.8-0.5-2.6-0.9-4.3-1.7c-0.3,0.6-0.4,0.9-0.7,1.5c1.5,0.7,2.3,1,3.9,1.5c-0.2,0.6-0.3,0.9-0.5,1.5
				c-1.6-0.5-2.4-0.9-4-1.6c-0.3,0.7-0.5,1-0.8,1.6C29,78.9,30,79.3,32,79.9z"/>
			<path class="st7" d="M42.4,83.4c0.1-2,0.1-3.1,0.2-5.1c-1,1.5-1.5,2.2-2.6,3.6c-0.6-0.1-0.8-0.1-1.4-0.2c-0.8-1.6-1.1-2.4-1.8-4
				c-0.4,2-0.6,3-1,5c-1.1-0.2-1.6-0.3-2.7-0.6c0.9-3.3,1.3-4.9,2.2-8.2c0.9,0.2,1.4,0.3,2.3,0.5c0.6,1.9,1,2.9,1.9,4.8
				c1.3-1.6,1.9-2.5,2.9-4.2c0.9,0,1.4,0,2.3,0c0.1,3.4,0.2,5.1,0.3,8.5C44.1,83.4,43.5,83.4,42.4,83.4z"/>
			<path class="st7" d="M56.4,79.2c0.1,0.3,0.1,0.7,0,1c-0.1,0.3-0.3,0.6-0.6,0.9c-0.3,0.3-0.7,0.5-1.1,0.7
				c-0.5,0.2-0.9,0.4-1.5,0.5c-2.3,0.5-3.4,0.7-5.7,0.9c-0.3-3.4-0.4-5.1-0.7-8.5c2.1-0.2,3.1-0.4,5.2-0.9c0.3-0.1,0.6-0.1,0.9,0
				c0.3,0.1,0.6,0.1,0.8,0.3c0.2,0.1,0.5,0.3,0.6,0.5c0.2,0.2,0.3,0.5,0.4,0.7c0.1,0.4,0.1,0.8,0,1.2c-0.1,0.4-0.4,0.8-0.9,1.1
				c0.6,0,1.2,0.1,1.6,0.3C55.8,78.3,56.2,78.6,56.4,79.2z M49.1,76.2c0.1,0.7,0.2,1,0.3,1.7c0.9-0.1,1.4-0.2,2.3-0.4
				c0.3-0.1,0.5-0.2,0.6-0.4c0.2-0.2,0.2-0.4,0.1-0.7c-0.1-0.3-0.2-0.5-0.4-0.6c-0.2-0.1-0.4-0.1-0.7-0.1C50.5,75.9,50,76,49.1,76.2
				z M53.7,79.6c-0.1-0.3-0.2-0.4-0.5-0.6c-0.2-0.1-0.5-0.2-0.8-0.1c-1.1,0.3-1.7,0.4-2.8,0.5c0.1,0.7,0.2,1.1,0.3,1.8
				c1.2-0.2,1.7-0.3,2.9-0.5c0.3-0.1,0.6-0.2,0.8-0.4C53.7,80.1,53.8,79.8,53.7,79.6z"/>
			<path class="st7" d="M65.3,75.4c0.4,0.6,0.6,0.9,0.9,1.5c-2.9,1.9-4.4,2.6-7.6,3.8c-1.2-3.2-1.8-4.8-3-8c2.5-0.9,3.7-1.5,5.9-3
				c0.4,0.6,0.6,0.9,0.9,1.5c-1.6,1-2.4,1.4-4.1,2.2c0.3,0.6,0.4,0.9,0.7,1.5c1.5-0.7,2.3-1.1,3.7-2c0.3,0.5,0.5,0.8,0.8,1.4
				c-1.5,0.9-2.3,1.3-3.9,2c0.3,0.7,0.5,1,0.8,1.6C62.4,77.2,63.4,76.6,65.3,75.4z"/>
			<path class="st7" d="M67.6,75.9c-1.9-2.8-2.9-4.2-4.9-7c1.4-1,2.1-1.6,3.5-2.8c0.3-0.3,0.7-0.6,1.1-0.7c0.4-0.2,0.8-0.3,1.2-0.3
				c0.4,0,0.8,0,1.2,0.1c0.4,0.1,0.7,0.3,1,0.5c0.2,0.2,0.4,0.4,0.5,0.6c0.1,0.2,0.2,0.5,0.3,0.7c0,0.3,0.1,0.5,0,0.8
				c0,0.3-0.1,0.6-0.2,0.9c1.7,0.1,2.5,0.1,4.3,0c-0.9,1-1.3,1.5-2.3,2.5c-1.5-0.1-2.2-0.1-3.7-0.3c-0.5,0.5-0.8,0.7-1.3,1.1
				c0.7,0.9,1,1.3,1.7,2.1C69,74.9,68.6,75.3,67.6,75.9z M67.1,70.7c0.7-0.6,1.1-0.9,1.8-1.5c0.2-0.2,0.3-0.5,0.4-0.8
				s-0.1-0.6-0.4-0.8c-0.2-0.3-0.5-0.4-0.8-0.4c-0.3,0-0.6,0.1-0.8,0.3c-0.6,0.6-1,0.9-1.6,1.4C66.3,69.6,66.6,70,67.1,70.7z"/>
		</g>
	</g>
	<text transform="matrix(1 0 0 1 7.2717 46.0673)" class="st9 st10 st11">115th congress</text>
</g>
<g id="outline">
</g>
</svg>
